<mxfile host="app.diagrams.net" modified="2024-05-10T01:20:39.465Z" agent="Mozilla/5.0 (Windows NT 10.0; Win64; x64; rv:125.0) Gecko/20100101 Firefox/125.0" etag="Wvev9Pde9N3c-1FFj992" version="24.3.1" type="device">
  <diagram name="Page-1" id="K32A7rLttDCCb1vwAq40">
    <mxGraphModel dx="1000" dy="531" grid="1" gridSize="10" guides="1" tooltips="1" connect="1" arrows="1" fold="1" page="1" pageScale="1" pageWidth="1169" pageHeight="827" math="0" shadow="0">
      <root>
        <mxCell id="0" />
        <mxCell id="1" parent="0" />
        <mxCell id="iIaRdTdBRkZ5VWPSKFOH-76" style="rounded=0;orthogonalLoop=1;jettySize=auto;html=1;exitX=0.5;exitY=1;exitDx=0;exitDy=0;entryX=0.5;entryY=0;entryDx=0;entryDy=0;dashed=1;endArrow=none;endFill=0;" edge="1" parent="1" source="iIaRdTdBRkZ5VWPSKFOH-8" target="iIaRdTdBRkZ5VWPSKFOH-34">
          <mxGeometry relative="1" as="geometry">
            <mxPoint x="130" y="70" as="sourcePoint" />
            <mxPoint x="130" y="130" as="targetPoint" />
          </mxGeometry>
        </mxCell>
        <mxCell id="iIaRdTdBRkZ5VWPSKFOH-4" style="edgeStyle=orthogonalEdgeStyle;rounded=0;orthogonalLoop=1;jettySize=auto;html=1;exitX=0.5;exitY=1;exitDx=0;exitDy=0;entryX=0.5;entryY=0;entryDx=0;entryDy=0;dashed=1;endArrow=none;endFill=0;" edge="1" parent="1" source="iIaRdTdBRkZ5VWPSKFOH-2" target="iIaRdTdBRkZ5VWPSKFOH-3">
          <mxGeometry relative="1" as="geometry" />
        </mxCell>
        <mxCell id="iIaRdTdBRkZ5VWPSKFOH-2" value="Crater" style="rounded=1;whiteSpace=wrap;html=1;" vertex="1" parent="1">
          <mxGeometry x="100" y="40" width="40" height="20" as="geometry" />
        </mxCell>
        <mxCell id="iIaRdTdBRkZ5VWPSKFOH-5" style="edgeStyle=orthogonalEdgeStyle;rounded=0;orthogonalLoop=1;jettySize=auto;html=1;exitX=0;exitY=0;exitDx=0;exitDy=0;startArrow=classic;startFill=1;endArrow=none;endFill=0;" edge="1" parent="1" source="iIaRdTdBRkZ5VWPSKFOH-3">
          <mxGeometry relative="1" as="geometry">
            <mxPoint x="20" y="120" as="targetPoint" />
            <Array as="points">
              <mxPoint x="50" y="120" />
              <mxPoint x="50" y="120" />
            </Array>
          </mxGeometry>
        </mxCell>
        <mxCell id="iIaRdTdBRkZ5VWPSKFOH-6" value="tick(location)" style="edgeLabel;html=1;align=center;verticalAlign=middle;resizable=0;points=[];" vertex="1" connectable="0" parent="iIaRdTdBRkZ5VWPSKFOH-5">
          <mxGeometry x="0.6775" y="-4" relative="1" as="geometry">
            <mxPoint x="20" y="-7" as="offset" />
          </mxGeometry>
        </mxCell>
        <mxCell id="iIaRdTdBRkZ5VWPSKFOH-9" style="edgeStyle=orthogonalEdgeStyle;rounded=0;orthogonalLoop=1;jettySize=auto;html=1;exitX=1;exitY=1;exitDx=0;exitDy=0;entryX=0;entryY=0;entryDx=0;entryDy=0;" edge="1" parent="1" source="iIaRdTdBRkZ5VWPSKFOH-3" target="iIaRdTdBRkZ5VWPSKFOH-7">
          <mxGeometry relative="1" as="geometry">
            <Array as="points">
              <mxPoint x="170" y="160" />
              <mxPoint x="170" y="160" />
            </Array>
          </mxGeometry>
        </mxCell>
        <mxCell id="iIaRdTdBRkZ5VWPSKFOH-10" value="spawn(location)" style="edgeLabel;html=1;align=center;verticalAlign=middle;resizable=0;points=[];" vertex="1" connectable="0" parent="iIaRdTdBRkZ5VWPSKFOH-9">
          <mxGeometry x="-0.5349" y="-1" relative="1" as="geometry">
            <mxPoint x="17" y="-11" as="offset" />
          </mxGeometry>
        </mxCell>
        <mxCell id="iIaRdTdBRkZ5VWPSKFOH-3" value="" style="rounded=0;whiteSpace=wrap;html=1;" vertex="1" parent="1">
          <mxGeometry x="110" y="120" width="20" height="40" as="geometry" />
        </mxCell>
        <mxCell id="iIaRdTdBRkZ5VWPSKFOH-18" style="rounded=0;orthogonalLoop=1;jettySize=auto;html=1;exitX=1;exitY=1;exitDx=0;exitDy=0;entryX=0;entryY=0;entryDx=0;entryDy=0;" edge="1" parent="1" source="iIaRdTdBRkZ5VWPSKFOH-7" target="iIaRdTdBRkZ5VWPSKFOH-17">
          <mxGeometry relative="1" as="geometry" />
        </mxCell>
        <mxCell id="iIaRdTdBRkZ5VWPSKFOH-19" value="getExits()" style="edgeLabel;html=1;align=center;verticalAlign=middle;resizable=0;points=[];" vertex="1" connectable="0" parent="iIaRdTdBRkZ5VWPSKFOH-18">
          <mxGeometry x="0.0943" y="-1" relative="1" as="geometry">
            <mxPoint x="-58" y="-11" as="offset" />
          </mxGeometry>
        </mxCell>
        <mxCell id="iIaRdTdBRkZ5VWPSKFOH-7" value="" style="rounded=0;whiteSpace=wrap;html=1;" vertex="1" parent="1">
          <mxGeometry x="270" y="160" width="20" height="60" as="geometry" />
        </mxCell>
        <mxCell id="iIaRdTdBRkZ5VWPSKFOH-8" value="ActorSpawner" style="rounded=1;whiteSpace=wrap;html=1;" vertex="1" parent="1">
          <mxGeometry x="240" y="40" width="80" height="20" as="geometry" />
        </mxCell>
        <mxCell id="iIaRdTdBRkZ5VWPSKFOH-11" value="opt" style="shape=umlFrame;whiteSpace=wrap;html=1;pointerEvents=0;recursiveResize=0;container=1;collapsible=0;width=40;height=15;" vertex="1" parent="1">
          <mxGeometry x="200" y="180" width="880" height="470" as="geometry" />
        </mxCell>
        <mxCell id="iIaRdTdBRkZ5VWPSKFOH-12" value="[random &amp;lt;= spawnChance]" style="text;html=1;" vertex="1" parent="iIaRdTdBRkZ5VWPSKFOH-11">
          <mxGeometry width="100" height="20" relative="1" as="geometry">
            <mxPoint x="100" as="offset" />
          </mxGeometry>
        </mxCell>
        <mxCell id="iIaRdTdBRkZ5VWPSKFOH-23" style="rounded=0;orthogonalLoop=1;jettySize=auto;html=1;exitX=1;exitY=1;exitDx=0;exitDy=0;entryX=1;entryY=0;entryDx=0;entryDy=0;endArrow=open;endFill=0;dashed=1;" edge="1" parent="iIaRdTdBRkZ5VWPSKFOH-11" source="iIaRdTdBRkZ5VWPSKFOH-17" target="iIaRdTdBRkZ5VWPSKFOH-29">
          <mxGeometry relative="1" as="geometry" />
        </mxCell>
        <mxCell id="iIaRdTdBRkZ5VWPSKFOH-30" value="Exit:exit" style="edgeLabel;html=1;align=center;verticalAlign=middle;resizable=0;points=[];" vertex="1" connectable="0" parent="iIaRdTdBRkZ5VWPSKFOH-23">
          <mxGeometry x="0.572" y="-2" relative="1" as="geometry">
            <mxPoint y="-8" as="offset" />
          </mxGeometry>
        </mxCell>
        <mxCell id="iIaRdTdBRkZ5VWPSKFOH-17" value="" style="rounded=0;whiteSpace=wrap;html=1;" vertex="1" parent="iIaRdTdBRkZ5VWPSKFOH-11">
          <mxGeometry x="270" y="40" width="20" height="40" as="geometry" />
        </mxCell>
        <mxCell id="iIaRdTdBRkZ5VWPSKFOH-14" value="loop" style="shape=umlFrame;whiteSpace=wrap;html=1;pointerEvents=0;recursiveResize=0;container=1;collapsible=0;width=40;height=15;" vertex="1" parent="iIaRdTdBRkZ5VWPSKFOH-11">
          <mxGeometry x="10" y="90" width="860" height="360" as="geometry" />
        </mxCell>
        <mxCell id="iIaRdTdBRkZ5VWPSKFOH-15" value="[for each exit]" style="text;html=1;" vertex="1" parent="iIaRdTdBRkZ5VWPSKFOH-14">
          <mxGeometry width="100" height="20" relative="1" as="geometry">
            <mxPoint x="90" y="10" as="offset" />
          </mxGeometry>
        </mxCell>
        <mxCell id="iIaRdTdBRkZ5VWPSKFOH-35" style="edgeStyle=none;rounded=0;orthogonalLoop=1;jettySize=auto;html=1;exitX=0;exitY=1;exitDx=0;exitDy=0;entryX=1;entryY=0;entryDx=0;entryDy=0;endArrow=open;endFill=0;dashed=1;" edge="1" parent="iIaRdTdBRkZ5VWPSKFOH-14" source="iIaRdTdBRkZ5VWPSKFOH-22" target="iIaRdTdBRkZ5VWPSKFOH-34">
          <mxGeometry relative="1" as="geometry" />
        </mxCell>
        <mxCell id="iIaRdTdBRkZ5VWPSKFOH-36" value="Location: destination" style="edgeLabel;html=1;align=center;verticalAlign=middle;resizable=0;points=[];" vertex="1" connectable="0" parent="iIaRdTdBRkZ5VWPSKFOH-35">
          <mxGeometry x="0.6824" y="4" relative="1" as="geometry">
            <mxPoint x="16" y="-14" as="offset" />
          </mxGeometry>
        </mxCell>
        <mxCell id="iIaRdTdBRkZ5VWPSKFOH-22" value="" style="rounded=0;whiteSpace=wrap;html=1;" vertex="1" parent="iIaRdTdBRkZ5VWPSKFOH-14">
          <mxGeometry x="380" y="50" width="20" height="40" as="geometry" />
        </mxCell>
        <mxCell id="iIaRdTdBRkZ5VWPSKFOH-32" style="edgeStyle=none;rounded=0;orthogonalLoop=1;jettySize=auto;html=1;exitX=1;exitY=1;exitDx=0;exitDy=0;entryX=0;entryY=0;entryDx=0;entryDy=0;" edge="1" parent="iIaRdTdBRkZ5VWPSKFOH-14" source="iIaRdTdBRkZ5VWPSKFOH-29" target="iIaRdTdBRkZ5VWPSKFOH-22">
          <mxGeometry relative="1" as="geometry" />
        </mxCell>
        <mxCell id="iIaRdTdBRkZ5VWPSKFOH-33" value="getDestination()" style="edgeLabel;html=1;align=center;verticalAlign=middle;resizable=0;points=[];" vertex="1" connectable="0" parent="iIaRdTdBRkZ5VWPSKFOH-32">
          <mxGeometry x="-0.7341" y="-4" relative="1" as="geometry">
            <mxPoint x="10" y="-14" as="offset" />
          </mxGeometry>
        </mxCell>
        <mxCell id="iIaRdTdBRkZ5VWPSKFOH-29" value="" style="rounded=0;whiteSpace=wrap;html=1;" vertex="1" parent="iIaRdTdBRkZ5VWPSKFOH-14">
          <mxGeometry x="60" y="-10" width="20" height="60" as="geometry" />
        </mxCell>
        <mxCell id="iIaRdTdBRkZ5VWPSKFOH-39" style="edgeStyle=none;rounded=0;orthogonalLoop=1;jettySize=auto;html=1;entryX=0;entryY=0;entryDx=0;entryDy=0;exitX=0.994;exitY=0.83;exitDx=0;exitDy=0;exitPerimeter=0;" edge="1" parent="iIaRdTdBRkZ5VWPSKFOH-14" source="iIaRdTdBRkZ5VWPSKFOH-34" target="iIaRdTdBRkZ5VWPSKFOH-38">
          <mxGeometry relative="1" as="geometry">
            <mxPoint x="110" y="290" as="sourcePoint" />
          </mxGeometry>
        </mxCell>
        <mxCell id="iIaRdTdBRkZ5VWPSKFOH-40" value="addActor(huntsmanSpider)" style="edgeLabel;html=1;align=center;verticalAlign=middle;resizable=0;points=[];" vertex="1" connectable="0" parent="iIaRdTdBRkZ5VWPSKFOH-39">
          <mxGeometry x="-0.5943" y="-1" relative="1" as="geometry">
            <mxPoint x="5" y="-11" as="offset" />
          </mxGeometry>
        </mxCell>
        <mxCell id="iIaRdTdBRkZ5VWPSKFOH-64" style="edgeStyle=none;rounded=0;orthogonalLoop=1;jettySize=auto;html=1;entryX=0;entryY=0;entryDx=0;entryDy=0;endSize=6;startSize=6;exitX=1.014;exitY=0.33;exitDx=0;exitDy=0;exitPerimeter=0;" edge="1" parent="iIaRdTdBRkZ5VWPSKFOH-14" source="iIaRdTdBRkZ5VWPSKFOH-34" target="iIaRdTdBRkZ5VWPSKFOH-61">
          <mxGeometry relative="1" as="geometry">
            <mxPoint x="90" y="170" as="sourcePoint" />
          </mxGeometry>
        </mxCell>
        <mxCell id="iIaRdTdBRkZ5VWPSKFOH-66" value="createActor()" style="edgeLabel;html=1;align=center;verticalAlign=middle;resizable=0;points=[];" vertex="1" connectable="0" parent="iIaRdTdBRkZ5VWPSKFOH-64">
          <mxGeometry x="-0.8754" y="4" relative="1" as="geometry">
            <mxPoint x="6" y="-5" as="offset" />
          </mxGeometry>
        </mxCell>
        <mxCell id="iIaRdTdBRkZ5VWPSKFOH-34" value="" style="rounded=0;whiteSpace=wrap;html=1;" vertex="1" parent="iIaRdTdBRkZ5VWPSKFOH-14">
          <mxGeometry x="60" y="90" width="20" height="240" as="geometry" />
        </mxCell>
        <mxCell id="iIaRdTdBRkZ5VWPSKFOH-58" value="opt" style="shape=umlFrame;whiteSpace=wrap;html=1;pointerEvents=0;recursiveResize=0;container=1;collapsible=0;width=40;height=20;" vertex="1" parent="iIaRdTdBRkZ5VWPSKFOH-14">
          <mxGeometry x="10" y="110" width="840" height="240" as="geometry" />
        </mxCell>
        <mxCell id="iIaRdTdBRkZ5VWPSKFOH-59" value="[!exit.containsActor()]" style="text;align=center;html=1;" vertex="1" parent="iIaRdTdBRkZ5VWPSKFOH-58">
          <mxGeometry width="100" height="20" relative="1" as="geometry">
            <mxPoint x="80" as="offset" />
          </mxGeometry>
        </mxCell>
        <mxCell id="iIaRdTdBRkZ5VWPSKFOH-38" value="" style="rounded=0;whiteSpace=wrap;html=1;" vertex="1" parent="iIaRdTdBRkZ5VWPSKFOH-58">
          <mxGeometry x="490" y="180" width="20" height="40" as="geometry" />
        </mxCell>
        <mxCell id="iIaRdTdBRkZ5VWPSKFOH-67" style="edgeStyle=none;rounded=0;orthogonalLoop=1;jettySize=auto;html=1;exitX=1;exitY=1;exitDx=0;exitDy=0;entryX=0;entryY=0;entryDx=0;entryDy=0;" edge="1" parent="iIaRdTdBRkZ5VWPSKFOH-58" source="iIaRdTdBRkZ5VWPSKFOH-61">
          <mxGeometry relative="1" as="geometry">
            <mxPoint x="730" y="100.00000000000011" as="targetPoint" />
          </mxGeometry>
        </mxCell>
        <mxCell id="iIaRdTdBRkZ5VWPSKFOH-68" value="&amp;lt;&amp;lt;creates&amp;gt;&amp;gt;" style="edgeLabel;html=1;align=center;verticalAlign=middle;resizable=0;points=[];" vertex="1" connectable="0" parent="iIaRdTdBRkZ5VWPSKFOH-67">
          <mxGeometry x="-0.1557" y="-4" relative="1" as="geometry">
            <mxPoint y="-14" as="offset" />
          </mxGeometry>
        </mxCell>
        <mxCell id="iIaRdTdBRkZ5VWPSKFOH-61" value="" style="rounded=0;whiteSpace=wrap;html=1;" vertex="1" parent="iIaRdTdBRkZ5VWPSKFOH-58">
          <mxGeometry x="610" y="60" width="20" height="40" as="geometry" />
        </mxCell>
        <mxCell id="iIaRdTdBRkZ5VWPSKFOH-62" value="HuntsmanSpider" style="rounded=1;whiteSpace=wrap;html=1;" vertex="1" parent="iIaRdTdBRkZ5VWPSKFOH-58">
          <mxGeometry x="730" y="90" width="100" height="20" as="geometry" />
        </mxCell>
        <mxCell id="iIaRdTdBRkZ5VWPSKFOH-69" value="" style="rounded=0;whiteSpace=wrap;html=1;" vertex="1" parent="iIaRdTdBRkZ5VWPSKFOH-58">
          <mxGeometry x="770" y="110" width="20" height="40" as="geometry" />
        </mxCell>
        <mxCell id="iIaRdTdBRkZ5VWPSKFOH-70" style="edgeStyle=none;rounded=0;orthogonalLoop=1;jettySize=auto;html=1;exitX=0;exitY=1;exitDx=0;exitDy=0;entryX=0.994;entryY=0.711;entryDx=0;entryDy=0;entryPerimeter=0;dashed=1;endArrow=open;endFill=0;" edge="1" parent="iIaRdTdBRkZ5VWPSKFOH-14" source="iIaRdTdBRkZ5VWPSKFOH-69" target="iIaRdTdBRkZ5VWPSKFOH-34">
          <mxGeometry relative="1" as="geometry">
            <mxPoint x="100" y="260" as="targetPoint" />
          </mxGeometry>
        </mxCell>
        <mxCell id="iIaRdTdBRkZ5VWPSKFOH-71" value="huntsmanSpider" style="edgeLabel;html=1;align=center;verticalAlign=middle;resizable=0;points=[];" vertex="1" connectable="0" parent="iIaRdTdBRkZ5VWPSKFOH-70">
          <mxGeometry x="0.6244" y="1" relative="1" as="geometry">
            <mxPoint x="-71" y="-12" as="offset" />
          </mxGeometry>
        </mxCell>
        <mxCell id="iIaRdTdBRkZ5VWPSKFOH-16" value="location:Location" style="rounded=1;whiteSpace=wrap;html=1;" vertex="1" parent="1">
          <mxGeometry x="430" y="40" width="100" height="20" as="geometry" />
        </mxCell>
        <mxCell id="iIaRdTdBRkZ5VWPSKFOH-20" value="A typical crater tick, assuming the crater spawns Huntsman Spiders" style="text;html=1;align=center;verticalAlign=middle;resizable=0;points=[];autosize=1;strokeColor=none;fillColor=none;" vertex="1" parent="1">
          <mxGeometry x="20" y="10" width="380" height="30" as="geometry" />
        </mxCell>
        <mxCell id="iIaRdTdBRkZ5VWPSKFOH-21" value="exit:Location" style="rounded=1;whiteSpace=wrap;html=1;" vertex="1" parent="1">
          <mxGeometry x="560" y="40" width="80" height="20" as="geometry" />
        </mxCell>
        <mxCell id="iIaRdTdBRkZ5VWPSKFOH-37" value="destination:Location" style="rounded=1;whiteSpace=wrap;html=1;" vertex="1" parent="1">
          <mxGeometry x="660" y="40" width="120" height="20" as="geometry" />
        </mxCell>
        <mxCell id="iIaRdTdBRkZ5VWPSKFOH-60" value="HuntsmanSpiderFactory" style="rounded=1;whiteSpace=wrap;html=1;" vertex="1" parent="1">
          <mxGeometry x="775" y="70" width="130" height="20" as="geometry" />
        </mxCell>
        <mxCell id="iIaRdTdBRkZ5VWPSKFOH-73" value="" style="rounded=0;whiteSpace=wrap;html=1;" vertex="1" parent="1">
          <mxGeometry x="110" y="600" width="20" height="40" as="geometry" />
        </mxCell>
        <mxCell id="iIaRdTdBRkZ5VWPSKFOH-74" style="edgeStyle=none;rounded=0;orthogonalLoop=1;jettySize=auto;html=1;exitX=0;exitY=1;exitDx=0;exitDy=0;entryX=1;entryY=0;entryDx=0;entryDy=0;dashed=1;endArrow=open;endFill=0;" edge="1" parent="1" source="iIaRdTdBRkZ5VWPSKFOH-34" target="iIaRdTdBRkZ5VWPSKFOH-73">
          <mxGeometry relative="1" as="geometry" />
        </mxCell>
        <mxCell id="iIaRdTdBRkZ5VWPSKFOH-75" value="void" style="edgeLabel;html=1;align=center;verticalAlign=middle;resizable=0;points=[];" vertex="1" connectable="0" parent="iIaRdTdBRkZ5VWPSKFOH-74">
          <mxGeometry x="0.5704" y="3" relative="1" as="geometry">
            <mxPoint x="-9" y="-13" as="offset" />
          </mxGeometry>
        </mxCell>
        <mxCell id="iIaRdTdBRkZ5VWPSKFOH-80" style="edgeStyle=orthogonalEdgeStyle;rounded=0;orthogonalLoop=1;jettySize=auto;html=1;exitX=0.5;exitY=1;exitDx=0;exitDy=0;entryX=0.5;entryY=0;entryDx=0;entryDy=0;dashed=1;endArrow=none;endFill=0;" edge="1" parent="1" source="iIaRdTdBRkZ5VWPSKFOH-16" target="iIaRdTdBRkZ5VWPSKFOH-17">
          <mxGeometry relative="1" as="geometry">
            <mxPoint x="140" y="80" as="sourcePoint" />
            <mxPoint x="140" y="140" as="targetPoint" />
          </mxGeometry>
        </mxCell>
        <mxCell id="iIaRdTdBRkZ5VWPSKFOH-82" style="edgeStyle=orthogonalEdgeStyle;rounded=0;orthogonalLoop=1;jettySize=auto;html=1;exitX=0.5;exitY=1;exitDx=0;exitDy=0;entryX=0.5;entryY=0;entryDx=0;entryDy=0;dashed=1;endArrow=none;endFill=0;" edge="1" parent="1" source="iIaRdTdBRkZ5VWPSKFOH-21" target="iIaRdTdBRkZ5VWPSKFOH-22">
          <mxGeometry relative="1" as="geometry">
            <mxPoint x="490" y="70" as="sourcePoint" />
            <mxPoint x="490" y="230" as="targetPoint" />
          </mxGeometry>
        </mxCell>
        <mxCell id="iIaRdTdBRkZ5VWPSKFOH-83" style="edgeStyle=orthogonalEdgeStyle;rounded=0;orthogonalLoop=1;jettySize=auto;html=1;exitX=0.5;exitY=1;exitDx=0;exitDy=0;entryX=0.5;entryY=0;entryDx=0;entryDy=0;dashed=1;endArrow=none;endFill=0;" edge="1" parent="1" source="iIaRdTdBRkZ5VWPSKFOH-37" target="iIaRdTdBRkZ5VWPSKFOH-38">
          <mxGeometry relative="1" as="geometry">
            <mxPoint x="500" y="80" as="sourcePoint" />
            <mxPoint x="500" y="240" as="targetPoint" />
          </mxGeometry>
        </mxCell>
        <mxCell id="iIaRdTdBRkZ5VWPSKFOH-84" style="edgeStyle=orthogonalEdgeStyle;rounded=0;orthogonalLoop=1;jettySize=auto;html=1;exitX=0.5;exitY=1;exitDx=0;exitDy=0;entryX=0.5;entryY=0;entryDx=0;entryDy=0;dashed=1;endArrow=none;endFill=0;" edge="1" parent="1" source="iIaRdTdBRkZ5VWPSKFOH-60" target="iIaRdTdBRkZ5VWPSKFOH-61">
          <mxGeometry relative="1" as="geometry">
            <mxPoint x="510" y="90" as="sourcePoint" />
            <mxPoint x="510" y="250" as="targetPoint" />
          </mxGeometry>
        </mxCell>
      </root>
    </mxGraphModel>
  </diagram>
</mxfile>
